<?xml version="1.0" encoding="UTF-8"?>
<svg id="_Слой_1" data-name="Слой_1" xmlns="http://www.w3.org/2000/svg" version="1.1" viewBox="150 475 780 200">
  <!-- Generator: Adobe Illustrator 29.8.2, SVG Export Plug-In . SVG Version: 2.1.1 Build 3)  -->
  <defs>
    <style>
      .st0 {
        fill-opacity: .9;
      }
    </style>
  </defs>
  <path class="st0" d="M395.5,487.7h-19.9c1.7,3.6,2.9,6.8,3.5,9.6.6,2.8.9,7.4,1,14l.3,53.7h0c0,6,0,10.5-.4,13.4-.4,3-1.4,7.5-3.2,13.6h19.3c-1.9-4.9-3.1-9.5-3.5-13.8-.4-4.3-.6-15.2-.6-32.7h7.8c7.1,0,12-.7,14.8-1.8,1.4-.6,2.8-1.3,4.2-2.2,1.5-.9,3.3-2.4,5.5-4.4,2.2-2,4.1-4.7,5.5-8.2,1.5-3.5,2.2-7.4,2.2-11.7,0-7.9-3-14.7-9.1-20.6-6-5.9-15.2-8.9-27.5-8.9ZM415.7,528.6c-1.8,3.6-4.5,6.4-8.2,8.5-3.6,2-8.7,3.3-15.5,3.7l-.3-34.3h0c0-5.6-.4-9.4-1-11.7,5.8,0,10.4.7,13.8,1.9,4.2,1.6,7.6,4.4,10.1,8.4,2.5,4,3.8,8.2,3.8,12.7s-.9,7.2-2.7,10.8Z"/>
  <path class="st0" d="M457.3,583.4c-.4-1.9-.5-4.9-.4-8.7l.7-30.7c6.4.4,11,.8,14,1.4,2.9.5,7.1,1.8,12.4,3.9l8.4-13.7-15.2-.3h-19.9v-30.3l-.3-8.7c13.7.4,25.7,2.3,35.9,5.7l7.8-14h-59.8c3,6.4,4.5,14,4.5,23v57.1c0,3.9-.3,7.3-.8,10.2-.5,2.9-1.1,5.2-1.7,6.8-.6,1.6-1.7,4-3.1,7.1h56.7l10-18c-8.1,3.5-15.4,5.9-21.9,7.1-6.5,1.3-15.6,2-27.3,2.3Z"/>
  <path class="st0" d="M568.1,572.9c-5.1-5.6-8.9-10-11.4-13.2-2.5-3.1-5.7-7.3-9.8-12.5l8.7-4.8c5.2-2.9,9.3-6.1,12.4-9.7,3-3.6,4.6-8.6,4.6-15.1s-2.5-13-7.5-18.1c-2.6-2.8-6.5-5.4-11.6-7.9-5.1-2.5-9.5-3.7-13.2-3.7h-27.7c1.9,5.1,3.1,8.7,3.5,10.8.4,2.1.6,5.9.7,11.4l.6,51.1h0c-.2,10.5-.4,17.1-.7,19.8-.3,2.7-1.4,6.4-3.2,11.1h19.6c-2.7-6.9-4.1-17.4-4.1-31.3v-16.2l18.7,23c7.3,9.1,15.9,17.2,25.8,24.5h13.1c-7.2-7.1-13.3-13.5-18.4-19.1ZM528.9,543.3l-.3-25.8h0c0-4.3.2-11.7.6-22,8,.3,14.5,2,19.6,5.1,3.8,2.4,6.5,5.4,8.3,9.1,1.8,3.7,2.7,7.4,2.7,11.2s-1.9,9.3-5.7,13.2c-3.7,3.5-12.1,6.6-25.2,9.3Z"/>
  <path class="st0" d="M636.1,508.2s0,0,0,0h0s0,0,0,0Z"/>
  <path class="st0" d="M638.2,547.4c-1.3-1.7-3.3-3.4-5.9-5.1-2.7-1.7-4.9-3-6.6-3.7-1.7-.8-4.3-1.9-7.7-3.4-5.4-2.3-9.9-5-13.3-8-3.5-3.1-5.2-7.1-5.2-12.2s1.8-8.8,5.4-12.4c3.6-3.5,7.8-5.3,12.6-5.3s12.6,3.7,18.7,11v-17c-5.8-2.7-11.1-4-15.9-4-9.1,0-16.8,2.9-23.1,8.6s-9.4,13.1-9.4,22.2,4.4,17.6,13.3,22.2c13.1,6.7,21.2,11.4,24.4,14,3.2,2.6,4.8,6.3,4.8,11.1s-1.8,9.5-5.5,12.9-8.1,5.1-13.2,5.1-6.2-.8-9.1-2.5c-2.8-1.7-5-3.3-6.3-4.8-1.4-1.5-3.1-3.7-5.4-6.6.4,9.7.5,16.7.4,20.9,7,1.8,12.4,2.8,16.1,2.8,9.8,0,18.2-2.8,25.3-8.5,7.1-5.6,10.7-12.8,10.7-21.6s-.5-6.3-1.5-9c-1-2.7-2.2-4.9-3.5-6.6Z"/>
  <path class="st0" d="M732.7,494.6c-8.9-5.2-18.6-7.8-29.1-7.8-15.1,0-28,5.1-38.9,15.4-10.8,10.3-16.2,23-16.2,38.2s2.6,19,7.8,27.2c5.2,8.2,12,14.5,20.3,18.8,8.3,4.4,17.2,6.6,26.5,6.6s5.9-.2,11.3-.6h0c9.9-2.9,18.8-7.3,26.8-13,6.8-4.6,11.7-10.7,14.8-18.2,3.1-7.5,4.6-14.5,4.6-20.9s-2.4-17.5-7.3-25.8c-4.9-8.2-11.8-14.9-20.7-20.1ZM734.1,573.9h0c-5,2.7-9.3,4.6-12.9,5.8-3.6,1.2-7.8,1.8-12.6,1.8s-8.9-.5-13.3-1.5c-4.5-1-8.8-2.7-13-4.9-4.2-2.3-7.9-5-11.1-8.3-3.2-3.3-5.8-7.3-7.8-12.2-2-4.8-3-10.2-3-16s.7-9.3,2-13.6c1.4-4.4,3.4-8.6,6.2-12.7,2.8-4.1,6.8-7.3,12.1-9.8,5.3-2.4,11.4-3.7,18.3-3.7,13.8,0,25.5,4.6,34.9,13.7s14.1,19.6,14.1,31.4-4.7,20.9-14.1,29.9Z"/>
  <path class="st0" d="M856.4,494.7c.5-1.6,1.3-3.9,2.3-6.9h-19.4c2.3,4.5,3.8,8.4,4.4,11.7.6,3.3.9,9.8.9,19.6v51.9c-4.4-5.3-9.8-11.9-15.9-20l-41.3-53.2h0c-3-3.8-5.4-7.2-7.1-10.1h-21.7c3.8,3.3,7.3,6.8,10.4,10.5.6,5.5.9,11.3.9,17.2v53.8c0,7.4-1.1,15-3.2,22.7h17.4c-2.5-6.8-3.8-16.7-3.8-29.5v-53.1l55.8,69.7c1.3,1.7,3,4.1,5.1,7.2,2.1,3.1,3.4,5,3.9,5.7h12.5c-1.6-4.2-2.5-10.3-2.5-18.1v-59.1c0-5.2,0-9.4.2-12.7.2-3.3.6-5.7,1.1-7.3Z"/>
  <path class="st0" d="M914.1,508.2h0s0,0,0,0h0s0,0,0,0Z"/>
  <path class="st0" d="M919.7,553.9c-1-2.7-2.2-4.9-3.5-6.6-1.3-1.7-3.3-3.4-5.9-5.1-2.7-1.7-4.8-3-6.6-3.7-1.8-.8-4.3-1.9-7.7-3.4-5.4-2.3-9.8-5-13.3-8-3.5-3.1-5.2-7.1-5.2-12.2s1.8-8.8,5.4-12.4c3.6-3.5,7.8-5.3,12.6-5.3s12.6,3.7,18.7,11v-17c-5.8-2.7-11.1-4-15.9-4-9.1,0-16.8,2.9-23.1,8.6-6.3,5.7-9.4,13.1-9.4,22.2s4.4,17.6,13.3,22.2c13.1,6.7,21.2,11.4,24.4,14,3.2,2.6,4.8,6.3,4.8,11.1s-1.8,9.5-5.5,12.9c-3.7,3.4-8.1,5.1-13.2,5.1s-6.2-.8-9.1-2.5c-2.8-1.7-5-3.3-6.3-4.8-1.4-1.5-3.1-3.7-5.4-6.6.4,9.7.5,16.7.4,20.9,7,1.8,12.4,2.8,16.1,2.8,9.8,0,18.2-2.8,25.3-8.5,7.1-5.6,10.7-12.8,10.7-21.6s-.5-6.3-1.5-9Z"/>
  <path class="st0" d="M209.3,547.3c-1.3-1.7-3.3-3.4-5.9-5.1-2.7-1.7-4.8-3-6.6-3.7-1.7-.8-4.3-1.9-7.7-3.4-5.4-2.3-9.9-5-13.3-8-3.5-3.1-5.2-7.1-5.2-12.2s1.8-8.8,5.4-12.4c3.6-3.5,7.8-5.3,12.6-5.3s12.6,3.7,18.7,11.1v-17c-5.8-2.7-11.1-4-15.9-4-9.1,0-16.8,2.9-23.1,8.6-6.3,5.7-9.4,13.1-9.4,22.2s4.5,17.5,13.3,22.2c13.1,6.7,21.2,11.4,24.4,14,3.2,2.6,4.8,6.3,4.8,11.1s-1.8,9.5-5.5,12.9-8.1,5.1-13.2,5.1-6.2-.8-9.1-2.5c-2.8-1.7-5-3.3-6.3-4.8-1.4-1.5-3.1-3.7-5.4-6.6.4,9.7.5,16.7.4,20.9,7,1.8,12.4,2.8,16.1,2.8,9.8,0,18.2-2.8,25.3-8.5,7.1-5.6,10.7-12.8,10.7-21.6s-.5-6.3-1.5-9c-1-2.7-2.2-4.9-3.5-6.6Z"/>
  <path class="st0" d="M244.7,487.8h-20.4c1.9,4.5,3.1,8,3.6,10.5.5,2.5.7,6.6.7,12.5v59.6c0,4.3-.2,7.7-.7,10-.5,2.4-1.7,6.2-3.8,11.6h20.6c-2.7-7.6-4.1-13.9-4.2-19.1v-65.7c-.1-4.7.1-8.2.7-10.4.5-2.2,1.7-5.2,3.6-9Z"/>
  <path class="st0" d="M338.7,583.3c-2.5-3-5.8-7.8-10.1-14.2l-20.2-30.9,22.6-35.2,3.9-6.1h0c1-1.2,3.4-4.2,7.2-9h-20c-.3,5.2-2.2,10.5-5.8,16.1l-14.9,23.7c-4.1-5.6-9.2-13.4-15.4-23.6-1.9-3.2-3.3-5.9-4.2-8-.9-2.1-1.5-3.6-1.7-4.4-.2-.9-.3-2.1-.4-3.7h-22.5c6,5.3,13.2,14.4,21.8,27.3l15.4,23.7-16.5,26.2c-7.2,11.1-14.8,20.1-22.6,27h23.3c1.1-6.8,4.3-14.3,9.8-22.8l12.8-20,14.9,23c3.9,6.3,5.9,11.7,5.9,16.1l-.3,3.6h26.1c-3.7-2.8-6.7-5.7-9.2-8.7Z"/>
</svg>